<?xml version="1.0" encoding="UTF-8" standalone="no"?>
<!DOCTYPE svg PUBLIC "-//W3C//DTD SVG 1.1//EN"
 "http://www.w3.org/Graphics/SVG/1.1/DTD/svg11.dtd">
<!-- Generated by graphviz version 2.40.1 (20161225.0304)
 -->
<!-- Title: dependencies Pages: 1 -->
<svg width="2223pt" height="284pt"
 viewBox="0.00 0.00 2223.00 284.00" xmlns="http://www.w3.org/2000/svg" xmlns:xlink="http://www.w3.org/1999/xlink">
<g id="graph0" class="graph" transform="scale(1 1) rotate(0) translate(4 280)">
<title>dependencies</title>
<polygon fill="#ffffff" stroke="transparent" points="-4,4 -4,-280 2219,-280 2219,4 -4,4"/>
<text text-anchor="start" x="1086.5091" y="-42.4" font-family="sans-serif" font-weight="bold" font-size="14.00" fill="#000000">Legend</text>
<polygon fill="#ffffb3" stroke="transparent" points="873.5,-10 873.5,-30 893.5,-30 893.5,-10 873.5,-10"/>
<text text-anchor="start" x="897.129" y="-15.4" font-family="sans-serif" font-size="14.00" fill="#000000"> &#160;Declarations</text>
<polygon fill="#8dd3c7" stroke="transparent" points="986.5,-10 986.5,-30 1006.5,-30 1006.5,-10 986.5,-10"/>
<text text-anchor="start" x="1010.2251" y="-15.4" font-family="sans-serif" font-size="14.00" fill="#000000"> &#160;Module</text>
<polygon fill="#80b1d3" stroke="transparent" points="1072.5,-10 1072.5,-30 1092.5,-30 1092.5,-10 1072.5,-10"/>
<text text-anchor="start" x="1096.2812" y="-15.4" font-family="sans-serif" font-size="14.00" fill="#000000"> &#160;Bootstrap</text>
<polygon fill="#fdb462" stroke="transparent" points="1169.5,-10 1169.5,-30 1189.5,-30 1189.5,-10 1169.5,-10"/>
<text text-anchor="start" x="1193.1732" y="-15.4" font-family="sans-serif" font-size="14.00" fill="#000000"> &#160;Providers</text>
<polygon fill="#fb8072" stroke="transparent" points="1265.5,-10 1265.5,-30 1285.5,-30 1285.5,-10 1265.5,-10"/>
<text text-anchor="start" x="1289.2258" y="-15.4" font-family="sans-serif" font-size="14.00" fill="#000000"> &#160;Exports</text>
<g id="clust1" class="cluster">
<title>cluster_SharedModule</title>
<polygon fill="none" stroke="#000000" stroke-dasharray="1,5" points="8,-70 8,-268 2207,-268 2207,-70 8,-70"/>
</g>
<g id="clust2" class="cluster">
<title>cluster_SharedModule_declarations</title>
<polygon fill="none" stroke="#000000" points="16,-78 16,-130 2199,-130 2199,-78 16,-78"/>
</g>
<g id="clust20" class="cluster">
<title>cluster_SharedModule_exports</title>
<polygon fill="none" stroke="#000000" points="637,-208 637,-260 1605,-260 1605,-208 637,-208"/>
</g>
<!-- AreaComponent -->
<g id="node1" class="node">
<title>AreaComponent</title>
<polygon fill="#ffffb3" stroke="#000000" points="2191.0298,-122 2082.9702,-122 2082.9702,-86 2191.0298,-86 2191.0298,-122"/>
<text text-anchor="middle" x="2137" y="-99.8" font-family="Times,serif" font-size="14.00" fill="#000000">AreaComponent</text>
</g>
<!-- SharedModule -->
<g id="node17" class="node">
<title>SharedModule</title>
<polygon fill="#8dd3c7" stroke="#000000" points="1184.4231,-187 1181.4231,-191 1160.4231,-191 1157.4231,-187 1085.5769,-187 1085.5769,-151 1184.4231,-151 1184.4231,-187"/>
<text text-anchor="middle" x="1135" y="-164.8" font-family="Times,serif" font-size="14.00" fill="#000000">SharedModule</text>
</g>
<!-- AreaComponent&#45;&gt;SharedModule -->
<g id="edge1" class="edge">
<title>AreaComponent&#45;&gt;SharedModule</title>
<path fill="none" stroke="#000000" d="M2137,-122.0267C2137,-142.7672 2137,-174 2137,-174 2137,-174 1194.3476,-174 1194.3476,-174"/>
<polygon fill="#000000" stroke="#000000" points="1194.3476,-170.5001 1184.3476,-174 1194.3475,-177.5001 1194.3476,-170.5001"/>
</g>
<!-- CardComponent -->
<g id="node2" class="node">
<title>CardComponent</title>
<polygon fill="#ffffb3" stroke="#000000" points="2064.0452,-122 1955.9548,-122 1955.9548,-86 2064.0452,-86 2064.0452,-122"/>
<text text-anchor="middle" x="2010" y="-99.8" font-family="Times,serif" font-size="14.00" fill="#000000">CardComponent</text>
</g>
<!-- CardComponent&#45;&gt;SharedModule -->
<g id="edge2" class="edge">
<title>CardComponent&#45;&gt;SharedModule</title>
<path fill="none" stroke="#000000" d="M2010,-122.308C2010,-142.1455 2010,-171 2010,-171 2010,-171 1194.2343,-171 1194.2343,-171"/>
<polygon fill="#000000" stroke="#000000" points="1194.2344,-167.5001 1184.2343,-171 1194.2343,-174.5001 1194.2344,-167.5001"/>
</g>
<!-- DftComponent -->
<g id="node3" class="node">
<title>DftComponent</title>
<polygon fill="#ffffb3" stroke="#000000" points="1937.9902,-122 1838.0098,-122 1838.0098,-86 1937.9902,-86 1937.9902,-122"/>
<text text-anchor="middle" x="1888" y="-99.8" font-family="Times,serif" font-size="14.00" fill="#000000">DftComponent</text>
</g>
<!-- DftComponent&#45;&gt;SharedModule -->
<g id="edge3" class="edge">
<title>DftComponent&#45;&gt;SharedModule</title>
<path fill="none" stroke="#000000" d="M1888,-122.1686C1888,-141.0898 1888,-168 1888,-168 1888,-168 1194.4064,-168 1194.4064,-168"/>
<polygon fill="#000000" stroke="#000000" points="1194.4065,-164.5001 1184.4064,-168 1194.4064,-171.5001 1194.4065,-164.5001"/>
</g>
<!-- DftcardComponent -->
<g id="node4" class="node">
<title>DftcardComponent</title>
<polygon fill="#ffffb3" stroke="#000000" points="1820.08,-122 1695.92,-122 1695.92,-86 1820.08,-86 1820.08,-122"/>
<text text-anchor="middle" x="1758" y="-99.8" font-family="Times,serif" font-size="14.00" fill="#000000">DftcardComponent</text>
</g>
<!-- DftcardComponent&#45;&gt;SharedModule -->
<g id="edge4" class="edge">
<title>DftcardComponent&#45;&gt;SharedModule</title>
<path fill="none" stroke="#000000" d="M1758,-122.302C1758,-140.2699 1758,-165 1758,-165 1758,-165 1194.4065,-165 1194.4065,-165"/>
<polygon fill="#000000" stroke="#000000" points="1194.4065,-161.5001 1184.4065,-165 1194.4065,-168.5001 1194.4065,-161.5001"/>
</g>
<!-- DftsComponent -->
<g id="node5" class="node">
<title>DftsComponent</title>
<polygon fill="#ffffb3" stroke="#000000" points="1677.9357,-122 1572.0643,-122 1572.0643,-86 1677.9357,-86 1677.9357,-122"/>
<text text-anchor="middle" x="1625" y="-99.8" font-family="Times,serif" font-size="14.00" fill="#000000">DftsComponent</text>
</g>
<!-- DftsComponent&#45;&gt;SharedModule -->
<g id="edge5" class="edge">
<title>DftsComponent&#45;&gt;SharedModule</title>
<path fill="none" stroke="#000000" d="M1584.6485,-122.0352C1584.6485,-138.7344 1584.6485,-161 1584.6485,-161 1584.6485,-161 1194.4065,-161 1194.4065,-161"/>
<polygon fill="#000000" stroke="#000000" points="1194.4065,-157.5001 1184.4065,-161 1194.4065,-164.5001 1194.4065,-157.5001"/>
</g>
<!-- FooterComponent -->
<g id="node6" class="node">
<title>FooterComponent</title>
<polygon fill="#ffffb3" stroke="#000000" points="1553.8809,-122 1436.1191,-122 1436.1191,-86 1553.8809,-86 1553.8809,-122"/>
<text text-anchor="middle" x="1495" y="-99.8" font-family="Times,serif" font-size="14.00" fill="#000000">FooterComponent</text>
</g>
<!-- FooterComponent&#45;&gt;SharedModule -->
<g id="edge6" class="edge">
<title>FooterComponent&#45;&gt;SharedModule</title>
<path fill="none" stroke="#000000" d="M1451.5408,-122.2819C1451.5408,-137.9478 1451.5408,-158 1451.5408,-158 1451.5408,-158 1194.4595,-158 1194.4595,-158"/>
<polygon fill="#000000" stroke="#000000" points="1194.4595,-154.5001 1184.4595,-158 1194.4595,-161.5001 1194.4595,-154.5001"/>
</g>
<!-- HeaderComponent -->
<g id="node7" class="node">
<title>HeaderComponent</title>
<polygon fill="#ffffb3" stroke="#000000" points="1417.7437,-122 1296.2563,-122 1296.2563,-86 1417.7437,-86 1417.7437,-122"/>
<text text-anchor="middle" x="1357" y="-99.8" font-family="Times,serif" font-size="14.00" fill="#000000">HeaderComponent</text>
</g>
<!-- HeaderComponent&#45;&gt;SharedModule -->
<g id="edge7" class="edge">
<title>HeaderComponent&#45;&gt;SharedModule</title>
<path fill="none" stroke="#000000" d="M1316.4093,-122.1243C1316.4093,-136.7832 1316.4093,-155 1316.4093,-155 1316.4093,-155 1194.5709,-155 1194.5709,-155"/>
<polygon fill="#000000" stroke="#000000" points="1194.5709,-151.5001 1184.5709,-155 1194.5709,-158.5001 1194.5709,-151.5001"/>
</g>
<!-- ParamCardComponent -->
<g id="node8" class="node">
<title>ParamCardComponent</title>
<polygon fill="#ffffb3" stroke="#000000" points="1278.3075,-122 1133.6925,-122 1133.6925,-86 1278.3075,-86 1278.3075,-122"/>
<text text-anchor="middle" x="1206" y="-99.8" font-family="Times,serif" font-size="14.00" fill="#000000">ParamCardComponent</text>
</g>
<!-- ParamCardComponent&#45;&gt;SharedModule -->
<g id="edge8" class="edge">
<title>ParamCardComponent&#45;&gt;SharedModule</title>
<path fill="none" stroke="#000000" d="M1159.0288,-122.1061C1159.0288,-122.1061 1159.0288,-140.991 1159.0288,-140.991"/>
<polygon fill="#000000" stroke="#000000" points="1155.5288,-140.9909 1159.0288,-150.991 1162.5288,-140.991 1155.5288,-140.9909"/>
</g>
<!-- PcaComponent -->
<g id="node9" class="node">
<title>PcaComponent</title>
<polygon fill="#ffffb3" stroke="#000000" points="1115.5452,-122 1014.4548,-122 1014.4548,-86 1115.5452,-86 1115.5452,-122"/>
<text text-anchor="middle" x="1065" y="-99.8" font-family="Times,serif" font-size="14.00" fill="#000000">PcaComponent</text>
</g>
<!-- PcaComponent&#45;&gt;SharedModule -->
<g id="edge9" class="edge">
<title>PcaComponent&#45;&gt;SharedModule</title>
<path fill="none" stroke="#000000" d="M1100.7805,-122.1061C1100.7805,-122.1061 1100.7805,-140.991 1100.7805,-140.991"/>
<polygon fill="#000000" stroke="#000000" points="1097.2806,-140.9909 1100.7805,-150.991 1104.2806,-140.991 1097.2806,-140.9909"/>
</g>
<!-- PieComponent -->
<g id="node10" class="node">
<title>PieComponent</title>
<polygon fill="#ffffb3" stroke="#000000" points="996.7204,-122 897.2796,-122 897.2796,-86 996.7204,-86 996.7204,-122"/>
<text text-anchor="middle" x="947" y="-99.8" font-family="Times,serif" font-size="14.00" fill="#000000">PieComponent</text>
</g>
<!-- PieComponent&#45;&gt;SharedModule -->
<g id="edge10" class="edge">
<title>PieComponent&#45;&gt;SharedModule</title>
<path fill="none" stroke="#000000" d="M974.125,-122.1243C974.125,-136.7832 974.125,-155 974.125,-155 974.125,-155 1075.4195,-155 1075.4195,-155"/>
<polygon fill="#000000" stroke="#000000" points="1075.4195,-158.5001 1085.4195,-155 1075.4195,-151.5001 1075.4195,-158.5001"/>
</g>
<!-- SMACardComponent -->
<g id="node11" class="node">
<title>SMACardComponent</title>
<polygon fill="#ffffb3" stroke="#000000" points="879.3781,-122 740.6219,-122 740.6219,-86 879.3781,-86 879.3781,-122"/>
<text text-anchor="middle" x="810" y="-99.8" font-family="Times,serif" font-size="14.00" fill="#000000">SMACardComponent</text>
</g>
<!-- SMACardComponent&#45;&gt;SharedModule -->
<g id="edge11" class="edge">
<title>SMACardComponent&#45;&gt;SharedModule</title>
<path fill="none" stroke="#000000" d="M835.125,-122.2819C835.125,-137.9478 835.125,-158 835.125,-158 835.125,-158 1075.4817,-158 1075.4817,-158"/>
<polygon fill="#000000" stroke="#000000" points="1075.4818,-161.5001 1085.4817,-158 1075.4817,-154.5001 1075.4818,-161.5001"/>
</g>
<!-- ScatterchartComponent -->
<g id="node12" class="node">
<title>ScatterchartComponent</title>
<polygon fill="#ffffb3" stroke="#000000" points="722.1811,-122 573.8189,-122 573.8189,-86 722.1811,-86 722.1811,-122"/>
<text text-anchor="middle" x="648" y="-99.8" font-family="Times,serif" font-size="14.00" fill="#000000">ScatterchartComponent</text>
</g>
<!-- ScatterchartComponent&#45;&gt;SharedModule -->
<g id="edge12" class="edge">
<title>ScatterchartComponent&#45;&gt;SharedModule</title>
<path fill="none" stroke="#000000" d="M683.6464,-122.0352C683.6464,-138.7344 683.6464,-161 683.6464,-161 683.6464,-161 1075.4061,-161 1075.4061,-161"/>
<polygon fill="#000000" stroke="#000000" points="1075.4062,-164.5001 1085.4061,-161 1075.4061,-157.5001 1075.4062,-164.5001"/>
</g>
<!-- SidebarComponent -->
<g id="node13" class="node">
<title>SidebarComponent</title>
<polygon fill="#ffffb3" stroke="#000000" points="556.0954,-122 431.9046,-122 431.9046,-86 556.0954,-86 556.0954,-122"/>
<text text-anchor="middle" x="494" y="-99.8" font-family="Times,serif" font-size="14.00" fill="#000000">SidebarComponent</text>
</g>
<!-- SidebarComponent&#45;&gt;SharedModule -->
<g id="edge13" class="edge">
<title>SidebarComponent&#45;&gt;SharedModule</title>
<path fill="none" stroke="#000000" d="M494,-122.302C494,-140.2699 494,-165 494,-165 494,-165 1075.7662,-165 1075.7662,-165"/>
<polygon fill="#000000" stroke="#000000" points="1075.7662,-168.5001 1085.7662,-165 1075.7661,-161.5001 1075.7662,-168.5001"/>
</g>
<!-- SmaComponent -->
<g id="node14" class="node">
<title>SmaComponent</title>
<polygon fill="#ffffb3" stroke="#000000" points="414.2204,-122 307.7796,-122 307.7796,-86 414.2204,-86 414.2204,-122"/>
<text text-anchor="middle" x="361" y="-99.8" font-family="Times,serif" font-size="14.00" fill="#000000">SmaComponent</text>
</g>
<!-- SmaComponent&#45;&gt;SharedModule -->
<g id="edge14" class="edge">
<title>SmaComponent&#45;&gt;SharedModule</title>
<path fill="none" stroke="#000000" d="M361,-122.1686C361,-141.0898 361,-168 361,-168 361,-168 1075.7009,-168 1075.7009,-168"/>
<polygon fill="#000000" stroke="#000000" points="1075.7009,-171.5001 1085.7009,-168 1075.7009,-164.5001 1075.7009,-171.5001"/>
</g>
<!-- WmaComponent -->
<g id="node15" class="node">
<title>WmaComponent</title>
<polygon fill="#ffffb3" stroke="#000000" points="289.6527,-122 178.3473,-122 178.3473,-86 289.6527,-86 289.6527,-122"/>
<text text-anchor="middle" x="234" y="-99.8" font-family="Times,serif" font-size="14.00" fill="#000000">WmaComponent</text>
</g>
<!-- WmaComponent&#45;&gt;SharedModule -->
<g id="edge15" class="edge">
<title>WmaComponent&#45;&gt;SharedModule</title>
<path fill="none" stroke="#000000" d="M234,-122.308C234,-142.1455 234,-171 234,-171 234,-171 1075.5972,-171 1075.5972,-171"/>
<polygon fill="#000000" stroke="#000000" points="1075.5972,-174.5001 1085.5972,-171 1075.5971,-167.5001 1075.5972,-174.5001"/>
</g>
<!-- WmacardComponent -->
<g id="node16" class="node">
<title>WmacardComponent</title>
<polygon fill="#ffffb3" stroke="#000000" points="159.7422,-122 24.2578,-122 24.2578,-86 159.7422,-86 159.7422,-122"/>
<text text-anchor="middle" x="92" y="-99.8" font-family="Times,serif" font-size="14.00" fill="#000000">WmacardComponent</text>
</g>
<!-- WmacardComponent&#45;&gt;SharedModule -->
<g id="edge16" class="edge">
<title>WmacardComponent&#45;&gt;SharedModule</title>
<path fill="none" stroke="#000000" d="M92,-122.0267C92,-142.7672 92,-174 92,-174 92,-174 1075.7448,-174 1075.7448,-174"/>
<polygon fill="#000000" stroke="#000000" points="1075.7448,-177.5001 1085.7448,-174 1075.7448,-170.5001 1075.7448,-177.5001"/>
</g>
<!-- AreaComponent  -->
<g id="node18" class="node">
<title>AreaComponent </title>
<polygon fill="#fb8072" stroke="#000000" points="1597.0288,-252 1484.9712,-252 1484.9712,-216 1597.0288,-216 1597.0288,-252"/>
<text text-anchor="middle" x="1541" y="-229.8" font-family="Times,serif" font-size="14.00" fill="#000000">AreaComponent </text>
</g>
<!-- SharedModule&#45;&gt;AreaComponent  -->
<g id="edge17" class="edge">
<title>SharedModule&#45;&gt;AreaComponent </title>
<path fill="none" stroke="#000000" stroke-dasharray="5,2" d="M1184.4747,-178C1288.3121,-178 1519.463,-178 1519.463,-178 1519.463,-178 1519.463,-205.973 1519.463,-205.973"/>
<polygon fill="#000000" stroke="#000000" points="1515.9631,-205.973 1519.463,-215.973 1522.9631,-205.973 1515.9631,-205.973"/>
</g>
<!-- CardComponent  -->
<g id="node19" class="node">
<title>CardComponent </title>
<polygon fill="#fb8072" stroke="#000000" points="1467.0442,-252 1354.9558,-252 1354.9558,-216 1467.0442,-216 1467.0442,-252"/>
<text text-anchor="middle" x="1411" y="-229.8" font-family="Times,serif" font-size="14.00" fill="#000000">CardComponent </text>
</g>
<!-- SharedModule&#45;&gt;CardComponent  -->
<g id="edge18" class="edge">
<title>SharedModule&#45;&gt;CardComponent </title>
<path fill="none" stroke="#000000" stroke-dasharray="5,2" d="M1184.3735,-181C1257.5951,-181 1386.4248,-181 1386.4248,-181 1386.4248,-181 1386.4248,-205.7604 1386.4248,-205.7604"/>
<polygon fill="#000000" stroke="#000000" points="1382.9249,-205.7604 1386.4248,-215.7604 1389.9249,-205.7604 1382.9249,-205.7604"/>
</g>
<!-- FooterComponent  -->
<g id="node20" class="node">
<title>FooterComponent </title>
<polygon fill="#fb8072" stroke="#000000" points="1336.8814,-252 1215.1186,-252 1215.1186,-216 1336.8814,-216 1336.8814,-252"/>
<text text-anchor="middle" x="1276" y="-229.8" font-family="Times,serif" font-size="14.00" fill="#000000">FooterComponent </text>
</g>
<!-- SharedModule&#45;&gt;FooterComponent  -->
<g id="edge19" class="edge">
<title>SharedModule&#45;&gt;FooterComponent </title>
<path fill="none" stroke="#000000" stroke-dasharray="5,2" d="M1184.3323,-184C1214.2637,-184 1246.7316,-184 1246.7316,-184 1246.7316,-184 1246.7316,-205.9489 1246.7316,-205.9489"/>
<polygon fill="#000000" stroke="#000000" points="1243.2317,-205.9488 1246.7316,-215.9489 1250.2317,-205.9489 1243.2317,-205.9488"/>
</g>
<!-- HeaderComponent  -->
<g id="node21" class="node">
<title>HeaderComponent </title>
<polygon fill="#fb8072" stroke="#000000" points="1197.7436,-252 1072.2564,-252 1072.2564,-216 1197.7436,-216 1197.7436,-252"/>
<text text-anchor="middle" x="1135" y="-229.8" font-family="Times,serif" font-size="14.00" fill="#000000">HeaderComponent </text>
</g>
<!-- SharedModule&#45;&gt;HeaderComponent  -->
<g id="edge20" class="edge">
<title>SharedModule&#45;&gt;HeaderComponent </title>
<path fill="none" stroke="#000000" stroke-dasharray="5,2" d="M1135,-187.1061C1135,-187.1061 1135,-205.991 1135,-205.991"/>
<polygon fill="#000000" stroke="#000000" points="1131.5001,-205.9909 1135,-215.991 1138.5001,-205.991 1131.5001,-205.9909"/>
</g>
<!-- PieComponent  -->
<g id="node22" class="node">
<title>PieComponent </title>
<polygon fill="#fb8072" stroke="#000000" points="1054.2206,-252 951.7794,-252 951.7794,-216 1054.2206,-216 1054.2206,-252"/>
<text text-anchor="middle" x="1003" y="-229.8" font-family="Times,serif" font-size="14.00" fill="#000000">PieComponent </text>
</g>
<!-- SharedModule&#45;&gt;PieComponent  -->
<g id="edge21" class="edge">
<title>SharedModule&#45;&gt;PieComponent </title>
<path fill="none" stroke="#000000" stroke-dasharray="5,2" d="M1085.5321,-184C1060.064,-184 1034.294,-184 1034.294,-184 1034.294,-184 1034.294,-205.9489 1034.294,-205.9489"/>
<polygon fill="#000000" stroke="#000000" points="1030.7941,-205.9488 1034.294,-215.9489 1037.7941,-205.9489 1030.7941,-205.9488"/>
</g>
<!-- SMACardComponent  -->
<g id="node23" class="node">
<title>SMACardComponent </title>
<polygon fill="#fb8072" stroke="#000000" points="933.3785,-252 790.6215,-252 790.6215,-216 933.3785,-216 933.3785,-252"/>
<text text-anchor="middle" x="862" y="-229.8" font-family="Times,serif" font-size="14.00" fill="#000000">SMACardComponent </text>
</g>
<!-- SharedModule&#45;&gt;SMACardComponent  -->
<g id="edge22" class="edge">
<title>SharedModule&#45;&gt;SMACardComponent </title>
<path fill="none" stroke="#000000" stroke-dasharray="5,2" d="M1085.6927,-181C1020.9147,-181 915.2895,-181 915.2895,-181 915.2895,-181 915.2895,-205.7604 915.2895,-205.7604"/>
<polygon fill="#000000" stroke="#000000" points="911.7895,-205.7604 915.2895,-215.7604 918.7895,-205.7604 911.7895,-205.7604"/>
</g>
<!-- SidebarComponent  -->
<g id="node24" class="node">
<title>SidebarComponent </title>
<polygon fill="#fb8072" stroke="#000000" points="772.596,-252 645.404,-252 645.404,-216 772.596,-216 772.596,-252"/>
<text text-anchor="middle" x="709" y="-229.8" font-family="Times,serif" font-size="14.00" fill="#000000">SidebarComponent </text>
</g>
<!-- SharedModule&#45;&gt;SidebarComponent  -->
<g id="edge23" class="edge">
<title>SharedModule&#45;&gt;SidebarComponent </title>
<path fill="none" stroke="#000000" stroke-dasharray="5,2" d="M1085.5412,-178C982.9929,-178 756.6794,-178 756.6794,-178 756.6794,-178 756.6794,-205.973 756.6794,-205.973"/>
<polygon fill="#000000" stroke="#000000" points="753.1794,-205.973 756.6794,-215.973 760.1794,-205.973 753.1794,-205.973"/>
</g>
</g>
</svg>
