<?xml version="1.0" encoding="UTF-8" standalone="no"?>
<!DOCTYPE svg PUBLIC "-//W3C//DTD SVG 1.1//EN"
 "http://www.w3.org/Graphics/SVG/1.1/DTD/svg11.dtd">
<!-- Generated by graphviz version 2.40.1 (20161225.0304)
 -->
<!-- Title: dependencies Pages: 1 -->
<svg width="909pt" height="284pt"
 viewBox="0.00 0.00 909.00 284.00" xmlns="http://www.w3.org/2000/svg" xmlns:xlink="http://www.w3.org/1999/xlink">
<g id="graph0" class="graph" transform="scale(1 1) rotate(0) translate(4 280)">
<title>dependencies</title>
<polygon fill="#ffffff" stroke="transparent" points="-4,4 -4,-280 905,-280 905,4 -4,4"/>
<text text-anchor="start" x="429.5091" y="-42.4" font-family="sans-serif" font-weight="bold" font-size="14.00" fill="#000000">Legend</text>
<polygon fill="#ffffb3" stroke="transparent" points="216.5,-10 216.5,-30 236.5,-30 236.5,-10 216.5,-10"/>
<text text-anchor="start" x="240.129" y="-15.4" font-family="sans-serif" font-size="14.00" fill="#000000"> &#160;Declarations</text>
<polygon fill="#8dd3c7" stroke="transparent" points="329.5,-10 329.5,-30 349.5,-30 349.5,-10 329.5,-10"/>
<text text-anchor="start" x="353.2251" y="-15.4" font-family="sans-serif" font-size="14.00" fill="#000000"> &#160;Module</text>
<polygon fill="#80b1d3" stroke="transparent" points="415.5,-10 415.5,-30 435.5,-30 435.5,-10 415.5,-10"/>
<text text-anchor="start" x="439.2812" y="-15.4" font-family="sans-serif" font-size="14.00" fill="#000000"> &#160;Bootstrap</text>
<polygon fill="#fdb462" stroke="transparent" points="512.5,-10 512.5,-30 532.5,-30 532.5,-10 512.5,-10"/>
<text text-anchor="start" x="536.1732" y="-15.4" font-family="sans-serif" font-size="14.00" fill="#000000"> &#160;Providers</text>
<polygon fill="#fb8072" stroke="transparent" points="608.5,-10 608.5,-30 628.5,-30 628.5,-10 608.5,-10"/>
<text text-anchor="start" x="632.2258" y="-15.4" font-family="sans-serif" font-size="14.00" fill="#000000"> &#160;Exports</text>
<g id="clust1" class="cluster">
<title>cluster_AppModule</title>
<polygon fill="none" stroke="#000000" stroke-dasharray="1,5" points="8,-70 8,-268 893,-268 893,-70 8,-70"/>
</g>
<g id="clust2" class="cluster">
<title>cluster_AppModule_declarations</title>
<polygon fill="none" stroke="#000000" points="451,-78 451,-130 885,-130 885,-78 451,-78"/>
</g>
<g id="clust6" class="cluster">
<title>cluster_AppModule_imports</title>
<polygon fill="none" stroke="#000000" points="16,-78 16,-130 443,-130 443,-78 16,-78"/>
</g>
<g id="clust8" class="cluster">
<title>cluster_AppModule_bootstrap</title>
<polygon fill="none" stroke="#000000" points="388,-208 388,-260 512,-260 512,-208 388,-208"/>
</g>
<!-- AppComponent -->
<g id="node1" class="node">
<title>AppComponent</title>
<polygon fill="#ffffb3" stroke="#000000" points="876.9399,-122 771.0601,-122 771.0601,-86 876.9399,-86 876.9399,-122"/>
<text text-anchor="middle" x="824" y="-99.8" font-family="Times,serif" font-size="14.00" fill="#000000">AppComponent</text>
</g>
<!-- AppModule -->
<g id="node4" class="node">
<title>AppModule</title>
<polygon fill="#8dd3c7" stroke="#000000" points="491.6571,-187 488.6571,-191 467.6571,-191 464.6571,-187 408.3429,-187 408.3429,-151 491.6571,-151 491.6571,-187"/>
<text text-anchor="middle" x="450" y="-164.8" font-family="Times,serif" font-size="14.00" fill="#000000">AppModule</text>
</g>
<!-- AppComponent&#45;&gt;AppModule -->
<g id="edge1" class="edge">
<title>AppComponent&#45;&gt;AppModule</title>
<path fill="none" stroke="#000000" d="M824,-122.2843C824,-143.3211 824,-175 824,-175 824,-175 501.8139,-175 501.8139,-175"/>
<polygon fill="#000000" stroke="#000000" points="501.8139,-171.5001 491.8139,-175 501.8139,-178.5001 501.8139,-171.5001"/>
</g>
<!-- LinechartComponent -->
<g id="node2" class="node">
<title>LinechartComponent</title>
<polygon fill="#ffffb3" stroke="#000000" points="753.4706,-122 618.5294,-122 618.5294,-86 753.4706,-86 753.4706,-122"/>
<text text-anchor="middle" x="686" y="-99.8" font-family="Times,serif" font-size="14.00" fill="#000000">LinechartComponent</text>
</g>
<!-- LinechartComponent&#45;&gt;AppModule -->
<g id="edge2" class="edge">
<title>LinechartComponent&#45;&gt;AppModule</title>
<path fill="none" stroke="#000000" d="M686,-122.0225C686,-139.3734 686,-163 686,-163 686,-163 501.9201,-163 501.9201,-163"/>
<polygon fill="#000000" stroke="#000000" points="501.9202,-159.5001 491.9201,-163 501.9201,-166.5001 501.9202,-159.5001"/>
</g>
<!-- ScatterplotComponent -->
<g id="node3" class="node">
<title>ScatterplotComponent</title>
<polygon fill="#ffffb3" stroke="#000000" points="600.9818,-122 459.0182,-122 459.0182,-86 600.9818,-86 600.9818,-122"/>
<text text-anchor="middle" x="530" y="-99.8" font-family="Times,serif" font-size="14.00" fill="#000000">ScatterplotComponent</text>
</g>
<!-- ScatterplotComponent&#45;&gt;AppModule -->
<g id="edge3" class="edge">
<title>ScatterplotComponent&#45;&gt;AppModule</title>
<path fill="none" stroke="#000000" d="M475.4187,-122.1061C475.4187,-122.1061 475.4187,-140.991 475.4187,-140.991"/>
<polygon fill="#000000" stroke="#000000" points="471.9187,-140.9909 475.4187,-150.991 478.9187,-140.991 471.9187,-140.9909"/>
</g>
<!-- AppComponent  -->
<g id="node8" class="node">
<title>AppComponent </title>
<polygon fill="#80b1d3" stroke="#000000" points="504.439,-252 395.561,-252 395.561,-216 504.439,-216 504.439,-252"/>
<text text-anchor="middle" x="450" y="-229.8" font-family="Times,serif" font-size="14.00" fill="#000000">AppComponent </text>
</g>
<!-- AppModule&#45;&gt;AppComponent  -->
<g id="edge7" class="edge">
<title>AppModule&#45;&gt;AppComponent </title>
<path fill="none" stroke="#000000" stroke-dasharray="1,5" d="M450,-187.1061C450,-187.1061 450,-205.991 450,-205.991"/>
<polygon fill="#000000" stroke="#000000" points="446.5001,-205.9909 450,-215.991 453.5001,-205.991 446.5001,-205.9909"/>
</g>
<!-- AppRoutingModule -->
<g id="node5" class="node">
<title>AppRoutingModule</title>
<polygon fill="#8dd3c7" stroke="#000000" points="435.2744,-122 432.2744,-126 411.2744,-126 408.2744,-122 306.7256,-122 306.7256,-86 435.2744,-86 435.2744,-122"/>
<text text-anchor="middle" x="371" y="-99.8" font-family="Times,serif" font-size="14.00" fill="#000000">AppRoutingModule</text>
</g>
<!-- AppRoutingModule&#45;&gt;AppModule -->
<g id="edge4" class="edge">
<title>AppRoutingModule&#45;&gt;AppModule</title>
<path fill="none" stroke="#000000" d="M421.7795,-122.1061C421.7795,-122.1061 421.7795,-140.991 421.7795,-140.991"/>
<polygon fill="#000000" stroke="#000000" points="418.2795,-140.9909 421.7795,-150.991 425.2795,-140.991 418.2795,-140.9909"/>
</g>
<!-- DefaultModule -->
<g id="node6" class="node">
<title>DefaultModule</title>
<polygon fill="#8dd3c7" stroke="#000000" points="288.5285,-122 285.5285,-126 264.5285,-126 261.5285,-122 187.4715,-122 187.4715,-86 288.5285,-86 288.5285,-122"/>
<text text-anchor="middle" x="238" y="-99.8" font-family="Times,serif" font-size="14.00" fill="#000000">DefaultModule</text>
</g>
<!-- DefaultModule&#45;&gt;AppModule -->
<g id="edge5" class="edge">
<title>DefaultModule&#45;&gt;AppModule</title>
<path fill="none" stroke="#000000" d="M238,-122.0225C238,-139.3734 238,-163 238,-163 238,-163 398.1156,-163 398.1156,-163"/>
<polygon fill="#000000" stroke="#000000" points="398.1157,-166.5001 408.1156,-163 398.1156,-159.5001 398.1157,-166.5001"/>
</g>
<!-- VisualscriptingModule -->
<g id="node7" class="node">
<title>VisualscriptingModule</title>
<polygon fill="#8dd3c7" stroke="#000000" points="169.5884,-122 166.5884,-126 145.5884,-126 142.5884,-122 24.4116,-122 24.4116,-86 169.5884,-86 169.5884,-122"/>
<text text-anchor="middle" x="97" y="-99.8" font-family="Times,serif" font-size="14.00" fill="#000000">VisualscriptingModule</text>
</g>
<!-- VisualscriptingModule&#45;&gt;AppModule -->
<g id="edge6" class="edge">
<title>VisualscriptingModule&#45;&gt;AppModule</title>
<path fill="none" stroke="#000000" d="M97,-122.2843C97,-143.3211 97,-175 97,-175 97,-175 398.1201,-175 398.1201,-175"/>
<polygon fill="#000000" stroke="#000000" points="398.1201,-178.5001 408.1201,-175 398.12,-171.5001 398.1201,-178.5001"/>
</g>
</g>
</svg>
