<?xml version="1.0" encoding="UTF-8" standalone="no"?>
<!DOCTYPE svg PUBLIC "-//W3C//DTD SVG 1.1//EN"
 "http://www.w3.org/Graphics/SVG/1.1/DTD/svg11.dtd">
<!-- Generated by graphviz version 2.40.1 (20161225.0304)
 -->
<!-- Title: dependencies Pages: 1 -->
<svg width="1002pt" height="284pt"
 viewBox="0.00 0.00 1002.00 284.00" xmlns="http://www.w3.org/2000/svg" xmlns:xlink="http://www.w3.org/1999/xlink">
<g id="graph0" class="graph" transform="scale(1 1) rotate(0) translate(4 280)">
<title>dependencies</title>
<polygon fill="#ffffff" stroke="transparent" points="-4,4 -4,-280 998,-280 998,4 -4,4"/>
<text text-anchor="start" x="476.0091" y="-42.4" font-family="sans-serif" font-weight="bold" font-size="14.00" fill="#000000">Legend</text>
<polygon fill="#ffffb3" stroke="transparent" points="263,-10 263,-30 283,-30 283,-10 263,-10"/>
<text text-anchor="start" x="286.629" y="-15.4" font-family="sans-serif" font-size="14.00" fill="#000000"> &#160;Declarations</text>
<polygon fill="#8dd3c7" stroke="transparent" points="376,-10 376,-30 396,-30 396,-10 376,-10"/>
<text text-anchor="start" x="399.7251" y="-15.4" font-family="sans-serif" font-size="14.00" fill="#000000"> &#160;Module</text>
<polygon fill="#80b1d3" stroke="transparent" points="462,-10 462,-30 482,-30 482,-10 462,-10"/>
<text text-anchor="start" x="485.7812" y="-15.4" font-family="sans-serif" font-size="14.00" fill="#000000"> &#160;Bootstrap</text>
<polygon fill="#fdb462" stroke="transparent" points="559,-10 559,-30 579,-30 579,-10 559,-10"/>
<text text-anchor="start" x="582.6732" y="-15.4" font-family="sans-serif" font-size="14.00" fill="#000000"> &#160;Providers</text>
<polygon fill="#fb8072" stroke="transparent" points="655,-10 655,-30 675,-30 675,-10 655,-10"/>
<text text-anchor="start" x="678.7258" y="-15.4" font-family="sans-serif" font-size="14.00" fill="#000000"> &#160;Exports</text>
<g id="clust1" class="cluster">
<title>cluster_VisualscriptingModule</title>
<polygon fill="none" stroke="#000000" stroke-dasharray="1,5" points="8,-70 8,-268 986,-268 986,-70 8,-70"/>
</g>
<g id="clust2" class="cluster">
<title>cluster_VisualscriptingModule_declarations</title>
<polygon fill="none" stroke="#000000" points="16,-78 16,-130 978,-130 978,-78 16,-78"/>
</g>
<g id="clust10" class="cluster">
<title>cluster_VisualscriptingModule_exports</title>
<polygon fill="none" stroke="#000000" points="406,-208 406,-260 592,-260 592,-208 406,-208"/>
</g>
<!-- CheckNgComponent -->
<g id="node1" class="node">
<title>CheckNgComponent</title>
<polygon fill="#ffffb3" stroke="#000000" points="970.205,-122 835.795,-122 835.795,-86 970.205,-86 970.205,-122"/>
<text text-anchor="middle" x="903" y="-99.8" font-family="Times,serif" font-size="14.00" fill="#000000">CheckNgComponent</text>
</g>
<!-- VisualscriptingModule -->
<g id="node7" class="node">
<title>VisualscriptingModule</title>
<polygon fill="#8dd3c7" stroke="#000000" points="571.5884,-187 568.5884,-191 547.5884,-191 544.5884,-187 426.4116,-187 426.4116,-151 571.5884,-151 571.5884,-187"/>
<text text-anchor="middle" x="499" y="-164.8" font-family="Times,serif" font-size="14.00" fill="#000000">VisualscriptingModule</text>
</g>
<!-- CheckNgComponent&#45;&gt;VisualscriptingModule -->
<g id="edge1" class="edge">
<title>CheckNgComponent&#45;&gt;VisualscriptingModule</title>
<path fill="none" stroke="#000000" d="M903,-122.2843C903,-143.3211 903,-175 903,-175 903,-175 581.6937,-175 581.6937,-175"/>
<polygon fill="#000000" stroke="#000000" points="581.6937,-171.5001 571.6937,-175 581.6937,-178.5001 581.6937,-171.5001"/>
</g>
<!-- NumberNgComponent -->
<g id="node2" class="node">
<title>NumberNgComponent</title>
<polygon fill="#ffffb3" stroke="#000000" points="818.3117,-122 673.6883,-122 673.6883,-86 818.3117,-86 818.3117,-122"/>
<text text-anchor="middle" x="746" y="-99.8" font-family="Times,serif" font-size="14.00" fill="#000000">NumberNgComponent</text>
</g>
<!-- NumberNgComponent&#45;&gt;VisualscriptingModule -->
<g id="edge2" class="edge">
<title>NumberNgComponent&#45;&gt;VisualscriptingModule</title>
<path fill="none" stroke="#000000" d="M746,-122.0225C746,-139.3734 746,-163 746,-163 746,-163 581.7722,-163 581.7722,-163"/>
<polygon fill="#000000" stroke="#000000" points="581.7722,-159.5001 571.7722,-163 581.7722,-166.5001 581.7722,-159.5001"/>
</g>
<!-- RunStatusNgComponent -->
<g id="node3" class="node">
<title>RunStatusNgComponent</title>
<polygon fill="#ffffb3" stroke="#000000" points="655.9986,-122 500.0014,-122 500.0014,-86 655.9986,-86 655.9986,-122"/>
<text text-anchor="middle" x="578" y="-99.8" font-family="Times,serif" font-size="14.00" fill="#000000">RunStatusNgComponent</text>
</g>
<!-- RunStatusNgComponent&#45;&gt;VisualscriptingModule -->
<g id="edge3" class="edge">
<title>RunStatusNgComponent&#45;&gt;VisualscriptingModule</title>
<path fill="none" stroke="#000000" d="M535.7725,-122.1061C535.7725,-122.1061 535.7725,-140.991 535.7725,-140.991"/>
<polygon fill="#000000" stroke="#000000" points="532.2725,-140.9909 535.7725,-150.991 539.2725,-140.991 532.2725,-140.9909"/>
</g>
<!-- RunbtnComponent -->
<g id="node4" class="node">
<title>RunbtnComponent</title>
<polygon fill="#ffffb3" stroke="#000000" points="482.0604,-122 359.9396,-122 359.9396,-86 482.0604,-86 482.0604,-122"/>
<text text-anchor="middle" x="421" y="-99.8" font-family="Times,serif" font-size="14.00" fill="#000000">RunbtnComponent</text>
</g>
<!-- RunbtnComponent&#45;&gt;VisualscriptingModule -->
<g id="edge4" class="edge">
<title>RunbtnComponent&#45;&gt;VisualscriptingModule</title>
<path fill="none" stroke="#000000" d="M454.3678,-122.1061C454.3678,-122.1061 454.3678,-140.991 454.3678,-140.991"/>
<polygon fill="#000000" stroke="#000000" points="450.8679,-140.9909 454.3678,-150.991 457.8679,-140.991 450.8679,-140.9909"/>
</g>
<!-- SelectNgComponent -->
<g id="node5" class="node">
<title>SelectNgComponent</title>
<polygon fill="#ffffb3" stroke="#000000" points="341.1471,-122 208.8529,-122 208.8529,-86 341.1471,-86 341.1471,-122"/>
<text text-anchor="middle" x="275" y="-99.8" font-family="Times,serif" font-size="14.00" fill="#000000">SelectNgComponent</text>
</g>
<!-- SelectNgComponent&#45;&gt;VisualscriptingModule -->
<g id="edge5" class="edge">
<title>SelectNgComponent&#45;&gt;VisualscriptingModule</title>
<path fill="none" stroke="#000000" d="M275,-122.0225C275,-139.3734 275,-163 275,-163 275,-163 416.2736,-163 416.2736,-163"/>
<polygon fill="#000000" stroke="#000000" points="416.2737,-166.5001 426.2736,-163 416.2736,-159.5001 416.2737,-166.5001"/>
</g>
<!-- VisualscriptingComponent -->
<g id="node6" class="node">
<title>VisualscriptingComponent</title>
<polygon fill="#ffffb3" stroke="#000000" points="190.371,-122 23.629,-122 23.629,-86 190.371,-86 190.371,-122"/>
<text text-anchor="middle" x="107" y="-99.8" font-family="Times,serif" font-size="14.00" fill="#000000">VisualscriptingComponent</text>
</g>
<!-- VisualscriptingComponent&#45;&gt;VisualscriptingModule -->
<g id="edge6" class="edge">
<title>VisualscriptingComponent&#45;&gt;VisualscriptingModule</title>
<path fill="none" stroke="#000000" d="M107,-122.2843C107,-143.3211 107,-175 107,-175 107,-175 416.1865,-175 416.1865,-175"/>
<polygon fill="#000000" stroke="#000000" points="416.1865,-178.5001 426.1865,-175 416.1865,-171.5001 416.1865,-178.5001"/>
</g>
<!-- VisualscriptingComponent  -->
<g id="node8" class="node">
<title>VisualscriptingComponent </title>
<polygon fill="#fb8072" stroke="#000000" points="584.3714,-252 413.6286,-252 413.6286,-216 584.3714,-216 584.3714,-252"/>
<text text-anchor="middle" x="499" y="-229.8" font-family="Times,serif" font-size="14.00" fill="#000000">VisualscriptingComponent </text>
</g>
<!-- VisualscriptingModule&#45;&gt;VisualscriptingComponent  -->
<g id="edge7" class="edge">
<title>VisualscriptingModule&#45;&gt;VisualscriptingComponent </title>
<path fill="none" stroke="#000000" stroke-dasharray="5,2" d="M499,-187.1061C499,-187.1061 499,-205.991 499,-205.991"/>
<polygon fill="#000000" stroke="#000000" points="495.5001,-205.9909 499,-215.991 502.5001,-205.991 495.5001,-205.9909"/>
</g>
</g>
</svg>
