<?xml version="1.0" encoding="UTF-8" standalone="no"?>
<!DOCTYPE svg PUBLIC "-//W3C//DTD SVG 1.1//EN"
 "http://www.w3.org/Graphics/SVG/1.1/DTD/svg11.dtd">
<!-- Generated by graphviz version 2.40.1 (20161225.0304)
 -->
<!-- Title: dependencies Pages: 1 -->
<svg width="2046pt" height="211pt"
 viewBox="0.00 0.00 2046.00 211.00" xmlns="http://www.w3.org/2000/svg" xmlns:xlink="http://www.w3.org/1999/xlink">
<g id="graph0" class="graph" transform="scale(1 1) rotate(0) translate(4 207)">
<title>dependencies</title>
<polygon fill="#ffffff" stroke="transparent" points="-4,4 -4,-207 2042,-207 2042,4 -4,4"/>
<text text-anchor="start" x="998.0091" y="-42.4" font-family="sans-serif" font-weight="bold" font-size="14.00" fill="#000000">Legend</text>
<polygon fill="#ffffb3" stroke="transparent" points="785,-10 785,-30 805,-30 805,-10 785,-10"/>
<text text-anchor="start" x="808.629" y="-15.4" font-family="sans-serif" font-size="14.00" fill="#000000"> &#160;Declarations</text>
<polygon fill="#8dd3c7" stroke="transparent" points="898,-10 898,-30 918,-30 918,-10 898,-10"/>
<text text-anchor="start" x="921.7251" y="-15.4" font-family="sans-serif" font-size="14.00" fill="#000000"> &#160;Module</text>
<polygon fill="#80b1d3" stroke="transparent" points="984,-10 984,-30 1004,-30 1004,-10 984,-10"/>
<text text-anchor="start" x="1007.7812" y="-15.4" font-family="sans-serif" font-size="14.00" fill="#000000"> &#160;Bootstrap</text>
<polygon fill="#fdb462" stroke="transparent" points="1081,-10 1081,-30 1101,-30 1101,-10 1081,-10"/>
<text text-anchor="start" x="1104.6732" y="-15.4" font-family="sans-serif" font-size="14.00" fill="#000000"> &#160;Providers</text>
<polygon fill="#fb8072" stroke="transparent" points="1177,-10 1177,-30 1197,-30 1197,-10 1177,-10"/>
<text text-anchor="start" x="1200.7258" y="-15.4" font-family="sans-serif" font-size="14.00" fill="#000000"> &#160;Exports</text>
<g id="clust1" class="cluster">
<title>cluster_DefaultModule</title>
<polygon fill="none" stroke="#000000" stroke-dasharray="1,5" points="8,-70 8,-195 2030,-195 2030,-70 8,-70"/>
</g>
<g id="clust2" class="cluster">
<title>cluster_DefaultModule_declarations</title>
<polygon fill="none" stroke="#000000" points="326,-78 326,-130 2022,-130 2022,-78 326,-78"/>
</g>
<g id="clust13" class="cluster">
<title>cluster_DefaultModule_imports</title>
<polygon fill="none" stroke="#000000" points="204,-78 204,-130 318,-130 318,-78 204,-78"/>
</g>
<g id="clust16" class="cluster">
<title>cluster_DefaultModule_providers</title>
<polygon fill="none" stroke="#000000" points="16,-78 16,-130 196,-130 196,-78 16,-78"/>
</g>
<!-- AddAlgoModalComponent -->
<g id="node1" class="node">
<title>AddAlgoModalComponent</title>
<polygon fill="#ffffb3" stroke="#000000" points="2013.986,-122 1844.014,-122 1844.014,-86 2013.986,-86 2013.986,-122"/>
<text text-anchor="middle" x="1929" y="-99.8" font-family="Times,serif" font-size="14.00" fill="#000000">AddAlgoModalComponent</text>
</g>
<!-- DefaultModule -->
<g id="node11" class="node">
<title>DefaultModule</title>
<polygon fill="#8dd3c7" stroke="#000000" points="1001.5285,-187 998.5285,-191 977.5285,-191 974.5285,-187 900.4715,-187 900.4715,-151 1001.5285,-151 1001.5285,-187"/>
<text text-anchor="middle" x="951" y="-164.8" font-family="Times,serif" font-size="14.00" fill="#000000">DefaultModule</text>
</g>
<!-- AddAlgoModalComponent&#45;&gt;DefaultModule -->
<g id="edge1" class="edge">
<title>AddAlgoModalComponent&#45;&gt;DefaultModule</title>
<path fill="none" stroke="#000000" d="M1929,-122.0908C1929,-145.1328 1929,-182 1929,-182 1929,-182 1011.8628,-182 1011.8628,-182"/>
<polygon fill="#000000" stroke="#000000" points="1011.8628,-178.5001 1001.8628,-182 1011.8628,-185.5001 1011.8628,-178.5001"/>
</g>
<!-- AddDatabaseModalComponent -->
<g id="node2" class="node">
<title>AddDatabaseModalComponent</title>
<polygon fill="#ffffb3" stroke="#000000" points="1825.7892,-122 1632.2108,-122 1632.2108,-86 1825.7892,-86 1825.7892,-122"/>
<text text-anchor="middle" x="1729" y="-99.8" font-family="Times,serif" font-size="14.00" fill="#000000">AddDatabaseModalComponent</text>
</g>
<!-- AddDatabaseModalComponent&#45;&gt;DefaultModule -->
<g id="edge2" class="edge">
<title>AddDatabaseModalComponent&#45;&gt;DefaultModule</title>
<path fill="none" stroke="#000000" d="M1729,-122.2843C1729,-143.3211 1729,-175 1729,-175 1729,-175 1011.7466,-175 1011.7466,-175"/>
<polygon fill="#000000" stroke="#000000" points="1011.7467,-171.5001 1001.7466,-175 1011.7466,-178.5001 1011.7467,-171.5001"/>
</g>
<!-- AddSessionModalComponent -->
<g id="node3" class="node">
<title>AddSessionModalComponent</title>
<polygon fill="#ffffb3" stroke="#000000" points="1614.2659,-122 1429.7341,-122 1429.7341,-86 1614.2659,-86 1614.2659,-122"/>
<text text-anchor="middle" x="1522" y="-99.8" font-family="Times,serif" font-size="14.00" fill="#000000">AddSessionModalComponent</text>
</g>
<!-- AddSessionModalComponent&#45;&gt;DefaultModule -->
<g id="edge3" class="edge">
<title>AddSessionModalComponent&#45;&gt;DefaultModule</title>
<path fill="none" stroke="#000000" d="M1522,-122.1061C1522,-141.3391 1522,-169 1522,-169 1522,-169 1011.6724,-169 1011.6724,-169"/>
<polygon fill="#000000" stroke="#000000" points="1011.6725,-165.5001 1001.6724,-169 1011.6724,-172.5001 1011.6725,-165.5001"/>
</g>
<!-- AlgorithmComponent -->
<g id="node4" class="node">
<title>AlgorithmComponent</title>
<polygon fill="#ffffb3" stroke="#000000" points="1411.6624,-122 1272.3376,-122 1272.3376,-86 1411.6624,-86 1411.6624,-122"/>
<text text-anchor="middle" x="1342" y="-99.8" font-family="Times,serif" font-size="14.00" fill="#000000">AlgorithmComponent</text>
</g>
<!-- AlgorithmComponent&#45;&gt;DefaultModule -->
<g id="edge4" class="edge">
<title>AlgorithmComponent&#45;&gt;DefaultModule</title>
<path fill="none" stroke="#000000" d="M1342,-122.0225C1342,-139.3734 1342,-163 1342,-163 1342,-163 1011.7156,-163 1011.7156,-163"/>
<polygon fill="#000000" stroke="#000000" points="1011.7156,-159.5001 1001.7156,-163 1011.7155,-166.5001 1011.7156,-159.5001"/>
</g>
<!-- DashboardComponent -->
<g id="node5" class="node">
<title>DashboardComponent</title>
<polygon fill="#ffffb3" stroke="#000000" points="1253.9734,-122 1112.0266,-122 1112.0266,-86 1253.9734,-86 1253.9734,-122"/>
<text text-anchor="middle" x="1183" y="-99.8" font-family="Times,serif" font-size="14.00" fill="#000000">DashboardComponent</text>
</g>
<!-- DashboardComponent&#45;&gt;DefaultModule -->
<g id="edge5" class="edge">
<title>DashboardComponent&#45;&gt;DefaultModule</title>
<path fill="none" stroke="#000000" d="M1183,-122.2396C1183,-137.5706 1183,-157 1183,-157 1183,-157 1011.6267,-157 1011.6267,-157"/>
<polygon fill="#000000" stroke="#000000" points="1011.6267,-153.5001 1001.6267,-157 1011.6267,-160.5001 1011.6267,-153.5001"/>
</g>
<!-- DatabaseComponent -->
<g id="node6" class="node">
<title>DatabaseComponent</title>
<polygon fill="#ffffb3" stroke="#000000" points="1094.1331,-122 961.8669,-122 961.8669,-86 1094.1331,-86 1094.1331,-122"/>
<text text-anchor="middle" x="1028" y="-99.8" font-family="Times,serif" font-size="14.00" fill="#000000">DatabaseComponent</text>
</g>
<!-- DatabaseComponent&#45;&gt;DefaultModule -->
<g id="edge6" class="edge">
<title>DatabaseComponent&#45;&gt;DefaultModule</title>
<path fill="none" stroke="#000000" d="M981.7237,-122.1061C981.7237,-122.1061 981.7237,-140.991 981.7237,-140.991"/>
<polygon fill="#000000" stroke="#000000" points="978.2238,-140.9909 981.7237,-150.991 985.2238,-140.991 978.2238,-140.9909"/>
</g>
<!-- DatabasesComponent -->
<g id="node7" class="node">
<title>DatabasesComponent</title>
<polygon fill="#ffffb3" stroke="#000000" points="944.0772,-122 805.9228,-122 805.9228,-86 944.0772,-86 944.0772,-122"/>
<text text-anchor="middle" x="875" y="-99.8" font-family="Times,serif" font-size="14.00" fill="#000000">DatabasesComponent</text>
</g>
<!-- DatabasesComponent&#45;&gt;DefaultModule -->
<g id="edge7" class="edge">
<title>DatabasesComponent&#45;&gt;DefaultModule</title>
<path fill="none" stroke="#000000" d="M922.1375,-122.1061C922.1375,-122.1061 922.1375,-140.991 922.1375,-140.991"/>
<polygon fill="#000000" stroke="#000000" points="918.6375,-140.9909 922.1375,-150.991 925.6375,-140.991 918.6375,-140.9909"/>
</g>
<!-- DefaultComponent -->
<g id="node8" class="node">
<title>DefaultComponent</title>
<polygon fill="#ffffb3" stroke="#000000" points="787.8104,-122 664.1896,-122 664.1896,-86 787.8104,-86 787.8104,-122"/>
<text text-anchor="middle" x="726" y="-99.8" font-family="Times,serif" font-size="14.00" fill="#000000">DefaultComponent</text>
</g>
<!-- DefaultComponent&#45;&gt;DefaultModule -->
<g id="edge8" class="edge">
<title>DefaultComponent&#45;&gt;DefaultModule</title>
<path fill="none" stroke="#000000" d="M726,-122.2396C726,-137.5706 726,-157 726,-157 726,-157 890.2251,-157 890.2251,-157"/>
<polygon fill="#000000" stroke="#000000" points="890.2251,-160.5001 900.2251,-157 890.225,-153.5001 890.2251,-160.5001"/>
</g>
<!-- LoadDataComponent -->
<g id="node9" class="node">
<title>LoadDataComponent</title>
<polygon fill="#ffffb3" stroke="#000000" points="646.0268,-122 509.9732,-122 509.9732,-86 646.0268,-86 646.0268,-122"/>
<text text-anchor="middle" x="578" y="-99.8" font-family="Times,serif" font-size="14.00" fill="#000000">LoadDataComponent</text>
</g>
<!-- LoadDataComponent&#45;&gt;DefaultModule -->
<g id="edge9" class="edge">
<title>LoadDataComponent&#45;&gt;DefaultModule</title>
<path fill="none" stroke="#000000" d="M578,-122.0225C578,-139.3734 578,-163 578,-163 578,-163 890.3074,-163 890.3074,-163"/>
<polygon fill="#000000" stroke="#000000" points="890.3074,-166.5001 900.3074,-163 890.3073,-159.5001 890.3074,-166.5001"/>
</g>
<!-- SparkContextComponent -->
<g id="node10" class="node">
<title>SparkContextComponent</title>
<polygon fill="#ffffb3" stroke="#000000" points="492.3229,-122 333.6771,-122 333.6771,-86 492.3229,-86 492.3229,-122"/>
<text text-anchor="middle" x="413" y="-99.8" font-family="Times,serif" font-size="14.00" fill="#000000">SparkContextComponent</text>
</g>
<!-- SparkContextComponent&#45;&gt;DefaultModule -->
<g id="edge10" class="edge">
<title>SparkContextComponent&#45;&gt;DefaultModule</title>
<path fill="none" stroke="#000000" d="M413,-122.1061C413,-141.3391 413,-169 413,-169 413,-169 890.3863,-169 890.3863,-169"/>
<polygon fill="#000000" stroke="#000000" points="890.3863,-172.5001 900.3863,-169 890.3862,-165.5001 890.3863,-172.5001"/>
</g>
<!-- SharedModule -->
<g id="node12" class="node">
<title>SharedModule</title>
<polygon fill="#8dd3c7" stroke="#000000" points="310.4231,-122 307.4231,-126 286.4231,-126 283.4231,-122 211.5769,-122 211.5769,-86 310.4231,-86 310.4231,-122"/>
<text text-anchor="middle" x="261" y="-99.8" font-family="Times,serif" font-size="14.00" fill="#000000">SharedModule</text>
</g>
<!-- SharedModule&#45;&gt;DefaultModule -->
<g id="edge11" class="edge">
<title>SharedModule&#45;&gt;DefaultModule</title>
<path fill="none" stroke="#000000" d="M261,-122.2843C261,-143.3211 261,-175 261,-175 261,-175 890.2627,-175 890.2627,-175"/>
<polygon fill="#000000" stroke="#000000" points="890.2627,-178.5001 900.2627,-175 890.2626,-171.5001 890.2627,-178.5001"/>
</g>
<!-- DashboardService -->
<g id="node13" class="node">
<title>DashboardService</title>
<ellipse fill="#fdb462" stroke="#000000" cx="106" cy="-104" rx="81.6423" ry="18"/>
<text text-anchor="middle" x="106" y="-99.8" font-family="Times,serif" font-size="14.00" fill="#000000">DashboardService</text>
</g>
<!-- DashboardService&#45;&gt;DefaultModule -->
<g id="edge12" class="edge">
<title>DashboardService&#45;&gt;DefaultModule</title>
<path fill="none" stroke="#000000" d="M106,-122.0908C106,-145.1328 106,-182 106,-182 106,-182 890.3586,-182 890.3586,-182"/>
<polygon fill="#000000" stroke="#000000" points="890.3586,-185.5001 900.3586,-182 890.3586,-178.5001 890.3586,-185.5001"/>
</g>
</g>
</svg>
